# xmcd
#
# Track frame offsets:
#	150
#	28033
#	50441
#	70545
#	92197
#	112808
#	135172
#	164758
#	188006
#	212511
#	259262
#	282676
#
# Disc length: 4065 seconds
#
# Revision: 0
# Processed by: cddbd v1.4PL0 Copyright (c) Steve Scherf et al.
# Submitted via: dBpowerAMP V4.0
#
DISCID=a80fdf0c
DTITLE=Keeravani/Raj-Koti - Gharana Mogudu - Muta Mestri
DYEAR=1900
DGENRE=Blues
TTITLE0=Gharana Mogudu - Bangaru Kodi Petta
TTITLE1=Gharana Mogudu - Pandu Pandu
TTITLE2=Gharana Mogudu - Hey Pilla ! Hallo Pilla !
TTITLE3=Gharana Mogudu - Kappuko Duppati
TTITLE4=Gharana Mogudu - Endibe Ettaga Vundi
TTITLE5=Gharana Mogudu - Kitukulu Thelisina
TTITLE6=Muta Mestri - Ee Petaku Nene Mestri
TTITLE7=Muta Mestri - Anjanee Puthruda
TTITLE8=Muta Mestri - Chik Chik Cham
TTITLE9=Muta Mestri - Vana Gadiyaramlo
TTITLE10=Muta Mestri - Entha Ghatu Premayo
TTITLE11=Muta Mestri - Jorugunnadi
EXTD=
EXTT0=
EXTT1=
EXTT2=
EXTT3=
EXTT4=
EXTT5=
EXTT6=
EXTT7=
EXTT8=
EXTT9=
EXTT10=
EXTT11=
PLAYORDER=
